# xmcd
# Copyright (C) 1995-1998 Ti Kan
#
# Track frame offsets:
#       150
#       16554
#       32172
#       48478
#       64186
#       79385
#       96653
#       114806
#       130779
#       149367
#       166141
#       183001
#       203962
#       221222
#       223375
#
# Disc length: 3153 seconds
#
# Revision: 0
# Processed by: cddbd v1.5.2PL0 Copyright (c) Steve Scherf et al.
# Submitted via: CD-Import v1.0
#
DISCID=dc0c4f0f
DTITLE=Scrubs/Various - Scrubs Soundtrack
DYEAR=2002
DGENRE=
TTITLE0=Superman
TTITLE1=All In My Head
TTITLE2=Fresh Feeling
TTITLE3=Good Time
TTITLE4=Good Life
TTITLE5=New Slang
TTITLE6=Beautiful World
TTITLE7=Hold On Hope
TTITLE8=Fighting For My Love
TTITLE9=Dracula From Houston
TTITLE10=Hooch
TTITLE11=Hallelujah
TTITLE12=Have It All
TTITLE13=Scrubs (End Credits)
TTITLE14=Overkill
EXTD=
EXTT0=
EXTT1=
EXTT2=
EXTT3=
EXTT4=
EXTT5=
EXTT6=
EXTT7=
EXTT8=
EXTT9=
EXTT10=
EXTT11=
EXTT12=
EXTT13=
EXTT14=
PLAYORDER=
